<?xml version="1.0" encoding="UTF-8"?><svg id="Layer_2" xmlns="http://www.w3.org/2000/svg" viewBox="0 0 811.64 530.48"><defs><style>.cls-1{fill:#fff;}.cls-2{fill:#616e7d;}.cls-3{fill:#82bfab;}.cls-4{fill:#aad4c8;}</style></defs><g id="Object"><g><path class="cls-2" d="M95.33,0c-10.19,0-18.45,8.27-18.45,18.47V400.54c0,10.19,8.26,18.45,18.45,18.45H716.3c10.19,0,18.47-8.26,18.47-18.45V18.47c0-10.2-8.28-18.47-18.47-18.47H95.33ZM691.28,377.68H119.14V40.12H691.28V377.68Z"/><path class="cls-2" d="M728.17,426.97H83.47c-4.26,0-8.39,1.68-11.7,4.8L6.82,492.84c-13.44,12.62-5.68,37.64,11.68,37.64H793.15c17.36,0,25.12-25.02,11.68-37.64l-64.97-61.07c-3.28-3.12-7.42-4.8-11.68-4.8Z"/><path class="cls-1" d="M691.28,377.68V40.12H119.14V377.68H691.28Zm-291.58-121.33h-123.84v-15.39h123.84v15.39Zm140.71,84.84h-132.95v-11.68h132.95v11.68Zm122.34-20.04h-255.29v-11.67h255.29v11.67Zm0-20.04h-255.29v-11.66h255.29v11.66Zm0-20.02h-255.29v-11.68h255.29v11.68Zm-255.29-24.73v-15.39h123.86v15.39h-123.86Zm255.47,0h-123.86v-15.39h123.86v15.39ZM144.26,68.78H662.93V227.1H144.26V68.78Zm0,172.17h123.85v15.39h-123.85v-15.39Zm0,29.34h255.29v77.74H144.26v-77.74Z"/><rect class="cls-4" x="144.26" y="68.78" width="518.67" height="158.31"/><rect class="cls-3" x="144.26" y="240.95" width="123.85" height="15.39"/><rect class="cls-3" x="144.26" y="270.29" width="255.29" height="77.74"/><rect class="cls-3" x="275.86" y="240.95" width="123.84" height="15.39"/><rect class="cls-3" x="407.47" y="240.95" width="123.86" height="15.39"/><rect class="cls-4" x="407.47" y="269.39" width="255.29" height="11.68"/><rect class="cls-4" x="407.47" y="289.43" width="255.29" height="11.66"/><rect class="cls-4" x="407.47" y="309.47" width="255.29" height="11.67"/><rect class="cls-4" x="407.47" y="329.5" width="132.95" height="11.68"/><rect class="cls-3" x="539.07" y="240.95" width="123.86" height="15.39"/></g></g></svg>